<?xml version="1.0" standalone="no"?>
<!DOCTYPE svg PUBLIC "-//W3C//DTD SVG 20010904//EN"
 "http://www.w3.org/TR/2001/REC-SVG-20010904/DTD/svg10.dtd">
<svg version="1.0" xmlns="http://www.w3.org/2000/svg"
 width="1029.000000pt" height="1029.000000pt" viewBox="0 0 1029.000000 1029.000000"
 preserveAspectRatio="xMidYMid meet">
<metadata>
Created by potrace 1.11, written by Peter Selinger 2001-2013
</metadata>
<g transform="translate(0.000000,1029.000000) scale(0.100000,-0.100000)"
fill="#000000" stroke="none">
<path d="M253 9703 c-135 -76 -252 -147 -249 -152 2 -3 77 -134 168 -291 324
-561 361 -624 391 -679 16 -31 36 -63 43 -72 8 -8 14 -18 14 -21 0 -3 44 -81
98 -174 54 -93 110 -189 124 -214 14 -25 106 -184 205 -355 99 -170 195 -337
213 -370 18 -33 55 -96 80 -140 37 -62 446 -769 551 -952 11 -18 27 -48 38
-65 10 -18 103 -179 206 -358 103 -179 220 -381 260 -450 40 -69 155 -269 257
-445 102 -176 211 -365 243 -420 91 -158 232 -403 360 -625 65 -113 141 -245
170 -295 41 -70 291 -502 405 -700 288 -501 1113 -1927 1131 -1955 17 -27 136
-248 159 -296 l23 -46 69 129 c38 70 81 151 96 178 14 28 29 52 32 55 6 5 72
118 125 215 15 28 34 57 41 66 8 8 14 19 14 22 0 4 18 37 40 73 22 36 40 68
40 70 0 3 11 21 23 42 13 20 103 174 199 342 97 168 226 393 288 500 62 107
121 209 130 225 10 17 84 145 165 285 81 140 156 271 167 290 28 48 195 338
283 490 40 69 157 271 260 450 103 179 220 381 260 450 40 69 85 148 100 175
16 28 38 66 50 85 12 19 33 55 47 80 14 25 59 104 100 175 138 238 410 709
433 750 12 22 52 91 89 153 36 62 78 134 92 160 15 26 84 146 154 267 70 121
152 263 182 315 30 52 81 140 113 195 32 55 70 121 84 146 14 25 64 111 111
192 47 81 90 155 95 165 6 9 31 53 56 97 25 44 81 141 124 215 43 74 103 178
133 230 30 52 63 110 73 128 11 17 27 47 38 65 10 17 78 135 150 260 73 126
141 245 153 265 11 20 24 42 28 47 4 6 19 30 32 55 30 53 301 524 400 694 38
65 70 122 71 127 2 8 -267 169 -283 169 -6 0 -214 -352 -342 -580 -11 -19 -44
-75 -73 -125 -29 -49 -63 -108 -75 -130 -21 -38 -112 -195 -361 -625 -59 -102
-116 -201 -127 -220 -39 -69 -322 -559 -450 -780 -51 -87 -103 -178 -150 -262
-11 -18 -48 -82 -84 -143 -35 -60 -67 -117 -71 -125 -4 -8 -15 -28 -26 -45
-15 -26 -128 -218 -190 -327 -10 -18 -68 -118 -128 -223 -61 -104 -179 -309
-263 -455 -84 -146 -192 -332 -240 -415 -48 -82 -139 -240 -202 -350 -63 -110
-141 -245 -173 -300 -32 -55 -92 -158 -133 -230 -41 -71 -109 -188 -150 -260
-108 -186 -250 -433 -277 -480 -12 -22 -112 -195 -222 -385 -110 -190 -221
-383 -247 -430 -27 -47 -58 -101 -71 -120 -12 -19 -120 -206 -240 -415 -120
-209 -248 -432 -285 -495 -37 -63 -113 -195 -170 -293 -56 -98 -106 -175 -110
-170 -9 8 -210 353 -210 359 0 1 -25 43 -55 93 -30 50 -55 93 -55 96 0 3 -11
22 -24 43 -18 29 -171 292 -306 527 -80 139 -180 312 -245 424 -42 74 -85 149
-95 165 -93 165 -216 376 -231 398 -11 14 -19 30 -19 35 0 4 -11 24 -23 43
-13 19 -36 58 -52 85 -28 51 -327 569 -510 885 -56 96 -105 182 -109 190 -4 8
-12 24 -19 35 -15 25 -167 287 -195 335 -25 45 -248 431 -387 670 -59 102
-117 203 -130 225 -46 82 -252 439 -415 720 -92 160 -252 436 -356 615 -103
179 -243 422 -312 540 -68 118 -136 235 -150 260 -48 87 -295 515 -311 540 -9
14 -21 34 -26 45 -6 11 -123 214 -260 450 -137 237 -271 469 -299 518 -28 48
-53 87 -56 87 -3 0 -19 -8 -37 -17z"/>
<path d="M2525 8421 c-138 -77 -160 -90 -162 -98 -2 -5 18 -47 45 -94 72 -124
229 -397 311 -538 39 -68 71 -127 71 -132 0 -5 5 -9 10 -9 6 0 10 -4 10 -8 0
-5 88 -161 196 -348 108 -186 210 -364 227 -394 16 -30 41 -72 54 -92 12 -21
23 -40 23 -43 0 -3 8 -18 19 -33 16 -23 235 -400 309 -532 14 -25 75 -130 135
-235 61 -104 158 -273 217 -375 58 -102 177 -309 264 -460 87 -151 162 -279
166 -285 4 -5 19 -30 32 -55 14 -25 83 -144 153 -265 70 -121 139 -240 153
-265 14 -25 55 -97 92 -160 107 -183 134 -234 231 -428 51 -100 93 -181 94
-180 2 2 28 55 60 118 99 201 115 230 262 485 79 138 147 257 152 265 6 8 56
96 113 194 57 99 114 197 126 220 34 57 171 295 192 331 9 17 43 75 75 130
129 224 249 432 265 460 10 17 56 96 103 177 l86 148 -72 41 c-40 23 -86 50
-103 60 -17 11 -35 19 -40 19 -9 0 -42 -51 -93 -143 -12 -21 -56 -98 -98 -170
-42 -73 -142 -247 -223 -387 -81 -140 -222 -385 -315 -545 -92 -159 -177 -306
-187 -325 -11 -19 -29 -51 -40 -70 -70 -121 -173 -298 -183 -315 -55 -100 -79
-135 -85 -128 -7 7 -238 406 -735 1268 -89 154 -224 388 -300 520 -338 585
-429 743 -453 785 -14 25 -33 57 -43 72 -11 14 -19 28 -19 31 0 3 -19 38 -43
79 -24 40 -55 93 -69 118 -21 38 -237 412 -580 1005 -41 72 -137 238 -213 370
-76 132 -138 241 -139 242 -1 1 -24 -11 -51 -26z"/>
</g>
</svg>
